<svg width="178" height="181" viewBox="0 0 178 181" fill="none" xmlns="http://www.w3.org/2000/svg">
<g clip-path="url(#clip0_50_2)">
<path d="M174 0.181885C175.105 0.181885 176 1.07732 176 2.18188V178.182C176 179.286 175.105 180.182 174 180.182H135.566C134.899 180.182 134.277 179.85 133.906 179.298L88 111L52.1408 57.0186C51.0449 55.3689 48.4749 56.1447 48.4749 58.1252V178.182C48.4749 179.286 47.5794 180.182 46.4749 180.182H3.01005C1.90156 180.182 1.00452 179.28 1.01007 178.172L1.89209 2.17186C1.89761 1.07121 2.79141 0.181885 3.89206 0.181885H46.8131C47.4948 0.181885 48.1296 0.529161 48.4973 1.10327L84.8918 57.9319L127.673 126.377C128.748 128.097 131.406 127.309 131.369 125.281L129.13 2.21827C129.109 1.09965 130.011 0.181885 131.13 0.181885H174Z" fill="black"/>
<path d="M47.3093 0.181885C47.9874 0.181885 48.6193 0.525458 48.9879 1.09458L87.715 60.8826C87.9763 61.286 88.4242 61.5295 88.9048 61.5295V61.5295C89.3843 61.5295 89.8313 61.2871 90.0929 60.8853L129.012 1.09087C129.381 0.523881 130.011 0.181885 130.688 0.181885H172.911C174.51 0.181885 175.462 1.96404 174.574 3.29301L117.267 89.0606C116.814 89.7383 116.818 90.623 117.277 91.2968L175.632 177.057C176.535 178.385 175.584 180.182 173.978 180.182H131.163C130.49 180.182 129.862 179.843 129.492 179.281L90.0965 119.389C89.8325 118.988 89.3842 118.746 88.9038 118.746V118.746C88.4233 118.746 87.9751 118.988 87.7111 119.389L48.3158 179.281C47.9459 179.843 47.318 180.182 46.6449 180.182H3.79509C2.1861 180.182 1.23576 178.379 2.14529 177.051L60.8999 91.3124C61.3668 90.6311 61.3668 89.7327 60.8999 89.0513L2.14529 3.31245C1.23577 1.9852 2.18611 0.181885 3.79509 0.181885H47.3093Z" fill="#8E1C2E"/>
<path d="M128.558 2.05632L130.5 71L175.445 3.10397C176.325 1.77444 175.372 0 173.778 0H130.557C129.431 0 128.526 0.930133 128.558 2.05632Z" fill="black"/>
<path d="M48.5 178.182V104.5L1.97322 177.103C1.12016 178.434 2.07608 180.182 3.65712 180.182H46.5C47.6046 180.182 48.5 179.286 48.5 178.182Z" fill="black"/>
</g>
<defs>
<clipPath id="clip0_50_2">
<rect width="177.758" height="180.182" fill="white"/>
</clipPath>
</defs>
</svg>
